<?xml version="1.0" encoding="UTF-8" standalone="no"?>
<!DOCTYPE svg PUBLIC "-//W3C//DTD SVG 1.1//EN" "http://www.w3.org/Graphics/SVG/1.1/DTD/svg11.dtd">
<svg width="100%" height="100%" viewBox="0 0 477 335" version="1.1" xmlns="http://www.w3.org/2000/svg" xmlns:xlink="http://www.w3.org/1999/xlink" xml:space="preserve" xmlns:serif="http://www.serif.com/" style="fill-rule:evenodd;clip-rule:evenodd;stroke-linejoin:round;stroke-miterlimit:2;">
    <g transform="matrix(1,0,0,1,-1366.09,-68.5239)">
        <g id="Logo-Only-Dark" serif:id="Logo Only Dark" transform="matrix(1,0,0,1,1358.9,-17.1775)">
            <rect x="7.19" y="85.701" width="476.15" height="334.941" style="fill:none;"/>
            <clipPath id="_clip1">
                <rect x="7.19" y="85.701" width="476.15" height="334.941"/>
            </clipPath>
            <g clip-path="url(#_clip1)">
                <g transform="matrix(1.07829,0,-0.113333,1.07829,11.4022,-28.7765)">
                    <g transform="matrix(0.862096,0,0,0.454115,33.476,190.381)">
                        <path d="M500,146.618C500,109.204 491.545,71.878 476.737,43.921C461.929,15.963 442.159,0 422.343,0C323.398,0 154.291,0 62.959,0C27.171,-0 -0,51.299 -0,118.867L0,353.382C0,390.796 8.455,428.122 23.263,456.079C38.071,484.037 57.841,500 77.657,500C176.602,500 345.709,500 437.041,500C472.829,500 500,448.701 500,381.133L500,146.618Z" style="fill:rgb(227,178,60);"/>
                    </g>
                    <g transform="matrix(1.55595,0,0,1.55595,-230.586,-41.7787)">
                        <g transform="matrix(0.364674,0,0,0.364674,207.237,107.173)">
                            <g transform="matrix(97.7657,0,0,97.7657,175.845,435.334)">
                                <path d="M0.093,-0.726L0.688,-0.726L0.688,-0.614L0.375,-0.614L0.375,-0.403L0.604,-0.403L0.604,-0.292L0.375,-0.292L0.375,-0L0.093,-0L0.093,-0.726Z" style="fill:rgb(66,62,55);fill-rule:nonzero;"/>
                            </g>
                            <g transform="matrix(97.7657,0,0,97.7657,245.78,435.334)">
                                <path d="M0.093,-0.726L0.375,-0.726L0.375,-0L0.093,-0L0.093,-0.726Z" style="fill:rgb(66,62,55);fill-rule:nonzero;"/>
                            </g>
                            <g transform="matrix(97.7657,0,0,97.7657,291.56,435.334)">
                                <path d="M0.093,-0.726L0.375,-0.726L0.375,-0.112L0.652,-0.112L0.652,-0L0.093,-0L0.093,-0.726Z" style="fill:rgb(66,62,55);fill-rule:nonzero;"/>
                            </g>
                            <g transform="matrix(97.7657,0,0,97.7657,357.581,435.334)">
                                <path d="M0.093,-0.726L0.292,-0.726L0.567,-0.346L0.828,-0.726L1.022,-0.726L1.022,-0L0.74,-0L0.74,-0.371L0.47,0.009L0.2,-0.371L0.2,-0L0.093,-0L0.093,-0.726Z" style="fill:rgb(66,62,55);fill-rule:nonzero;"/>
                            </g>
                            <g transform="matrix(97.7657,0,0,97.7657,466.564,435.334)">
                                <path d="M0.103,-0.161C0.137,-0.144 0.173,-0.13 0.211,-0.122C0.249,-0.113 0.284,-0.108 0.316,-0.108C0.354,-0.108 0.381,-0.114 0.399,-0.125C0.416,-0.135 0.425,-0.15 0.425,-0.168C0.425,-0.174 0.424,-0.18 0.422,-0.187C0.42,-0.193 0.415,-0.199 0.409,-0.205C0.403,-0.211 0.395,-0.217 0.385,-0.223C0.374,-0.229 0.36,-0.235 0.343,-0.241L0.256,-0.271C0.193,-0.292 0.146,-0.321 0.115,-0.358C0.083,-0.394 0.067,-0.438 0.067,-0.488C0.067,-0.521 0.074,-0.552 0.088,-0.582C0.102,-0.612 0.122,-0.639 0.15,-0.662C0.178,-0.685 0.212,-0.703 0.255,-0.717C0.297,-0.73 0.346,-0.737 0.403,-0.737C0.431,-0.737 0.458,-0.736 0.483,-0.732C0.509,-0.729 0.533,-0.725 0.556,-0.72C0.579,-0.715 0.599,-0.709 0.618,-0.702C0.637,-0.695 0.654,-0.689 0.668,-0.682L0.615,-0.587C0.605,-0.593 0.594,-0.599 0.582,-0.604C0.571,-0.609 0.559,-0.613 0.548,-0.616C0.536,-0.619 0.525,-0.622 0.514,-0.624C0.503,-0.625 0.493,-0.626 0.483,-0.626C0.468,-0.626 0.454,-0.624 0.442,-0.62C0.431,-0.616 0.421,-0.61 0.413,-0.604C0.405,-0.597 0.399,-0.59 0.395,-0.581C0.391,-0.573 0.389,-0.565 0.389,-0.557C0.389,-0.549 0.39,-0.543 0.394,-0.536C0.397,-0.529 0.403,-0.523 0.411,-0.516C0.42,-0.51 0.431,-0.504 0.444,-0.497C0.458,-0.491 0.474,-0.484 0.495,-0.478L0.553,-0.458C0.617,-0.437 0.665,-0.408 0.699,-0.371C0.732,-0.333 0.749,-0.289 0.749,-0.236C0.749,-0.2 0.741,-0.167 0.725,-0.137C0.709,-0.106 0.685,-0.08 0.653,-0.058C0.621,-0.036 0.581,-0.019 0.534,-0.007C0.487,0.005 0.432,0.011 0.369,0.011C0.339,0.011 0.31,0.01 0.282,0.007C0.255,0.003 0.227,-0.001 0.201,-0.007C0.174,-0.014 0.148,-0.021 0.123,-0.031C0.097,-0.04 0.071,-0.051 0.045,-0.064L0.103,-0.161Z" style="fill:rgb(66,62,55);fill-rule:nonzero;"/>
                            </g>
                        </g>
                        <g transform="matrix(1,0,2.77556e-17,1,43.2901,-139.512)">
                            <path d="M167.604,239.512L218.808,239.512L218.808,350.777C218.867,359.105 217.612,366.886 215.043,374.12C212.474,381.355 208.679,387.763 203.66,393.344C198.64,398.925 192.498,403.561 185.233,407.252C177.969,410.943 169.731,413.379 160.517,414.56L154.139,403.841C156.501,402.07 158.524,400.18 160.207,398.172C161.891,396.164 163.278,393.846 164.371,391.218C165.464,388.59 166.276,385.578 166.807,382.182C167.339,378.786 167.604,374.814 167.604,370.267L167.604,239.512Z" style="fill:rgb(66,62,55);fill-rule:nonzero;"/>
                        </g>
                        <g transform="matrix(1,0,4.16334e-17,1,43.2901,-139.512)">
                            <path d="M163.081,235.013L163.081,369.796C163.081,374.088 162.837,377.838 162.335,381.043C161.859,384.085 161.141,386.786 160.162,389.139C159.229,391.385 158.049,393.369 156.61,395.085C155.106,396.879 153.294,398.564 151.183,400.147L148.243,402.352L158.404,419.427L161.551,419.024C171.268,417.778 179.952,415.197 187.614,411.304C195.325,407.386 201.84,402.457 207.169,396.532C212.53,390.571 216.584,383.728 219.328,376.001C222.055,368.319 223.394,360.058 223.331,351.216C223.332,351.248 223.332,235.013 223.332,235.013L163.081,235.013ZM167.604,239.512L218.808,239.512L218.808,350.777C218.867,359.105 217.612,366.886 215.043,374.12C212.474,381.355 208.679,387.763 203.66,393.344C198.64,398.925 192.498,403.561 185.233,407.252C177.969,410.943 169.731,413.379 160.517,414.56L154.139,403.841C156.501,402.07 158.524,400.18 160.207,398.172C161.891,396.164 163.278,393.846 164.371,391.218C165.464,388.59 166.276,385.578 166.807,382.182C167.339,378.786 167.604,374.814 167.604,370.267L167.604,239.512Z" style="fill:rgb(227,178,60);"/>
                        </g>
                        <g transform="matrix(1,0,1.38778e-17,1,111.695,-139.512)">
                            <path d="M163.618,239.512L217.745,239.512C232.982,239.512 246.181,240.944 257.343,243.808C268.505,246.673 277.748,250.88 285.071,256.432C292.395,261.983 297.828,268.805 301.371,276.896C304.915,284.987 306.687,294.259 306.687,304.712C306.687,314.043 304.915,322.74 301.371,330.801C297.828,338.862 292.395,345.89 285.071,351.885C277.748,357.879 268.505,362.589 257.343,366.015C246.181,369.44 232.982,371.153 217.745,371.153L163.618,371.153L163.618,239.512ZM214.822,351.841C220.727,351.841 226.043,350.925 230.767,349.094C235.492,347.264 239.493,344.429 242.771,340.59C246.049,336.751 248.559,331.864 250.301,325.929C252.043,319.993 252.914,312.892 252.914,304.623C252.914,296.414 252.028,289.416 250.256,283.628C248.485,277.841 245.945,273.101 242.638,269.41C239.331,265.719 235.33,263.032 230.634,261.348C225.939,259.665 220.698,258.824 214.91,258.824L214.822,351.841Z" style="fill:rgb(66,62,55);fill-rule:nonzero;"/>
                        </g>
                        <g transform="matrix(1,0,2.77556e-17,1,111.695,-139.512)">
                            <path d="M159.094,235.013L159.094,375.651L218.218,375.651C233.943,375.651 247.559,373.862 259.079,370.327C270.79,366.733 280.473,361.767 288.157,355.478C295.977,349.077 301.765,341.561 305.548,332.953C309.32,324.371 311.21,315.115 311.21,305.182C311.21,294.017 309.276,284.117 305.491,275.475C301.593,266.574 295.622,259.066 287.567,252.959C279.762,247.043 269.929,242.511 258.034,239.458C246.544,236.51 232.957,235.013 217.272,235.013L159.094,235.013ZM163.618,239.512L217.745,239.512C232.982,239.512 246.181,240.944 257.343,243.808C268.505,246.673 277.748,250.88 285.071,256.432C292.395,261.983 297.828,268.805 301.371,276.896C304.915,284.987 306.687,294.259 306.687,304.712C306.687,314.043 304.915,322.74 301.371,330.801C297.828,338.862 292.395,345.89 285.071,351.885C277.748,357.879 268.505,362.589 257.343,366.015C246.181,369.44 232.982,371.153 217.745,371.153L163.618,371.153L163.618,239.512ZM214.822,351.841C220.727,351.841 226.043,350.925 230.767,349.094C235.492,347.264 239.493,344.429 242.771,340.59C246.049,336.751 248.559,331.864 250.301,325.929C252.043,319.993 252.914,312.892 252.914,304.623C252.914,296.414 252.028,289.416 250.256,283.628C248.485,277.841 245.945,273.101 242.638,269.41C239.331,265.719 235.33,263.032 230.634,261.348C225.939,259.665 220.698,258.824 214.91,258.824L214.822,351.841ZM219.43,263.481L219.35,347.086C222.729,346.731 225.865,345.998 228.754,344.878C232.865,343.285 236.345,340.816 239.196,337.476C242.147,334.021 244.378,329.605 245.947,324.263C247.591,318.662 248.39,311.955 248.39,304.153C248.39,296.475 247.596,289.928 245.939,284.515C244.407,279.511 242.262,275.392 239.403,272.201C236.677,269.159 233.376,266.951 229.507,265.564C226.413,264.455 223.053,263.767 219.43,263.481Z" style="fill:rgb(227,178,60);"/>
                        </g>
                    </g>
                </g>
            </g>
        </g>
    </g>
</svg>
