<?xml version="1.0" encoding="UTF-8" standalone="no"?>
<!DOCTYPE svg PUBLIC "-//W3C//DTD SVG 1.1//EN" "http://www.w3.org/Graphics/SVG/1.1/DTD/svg11.dtd">
<svg width="100%" height="100%" viewBox="0 0 100 100" version="1.1" xmlns="http://www.w3.org/2000/svg" xmlns:xlink="http://www.w3.org/1999/xlink" xml:space="preserve" xmlns:serif="http://www.serif.com/" style="fill-rule:evenodd;clip-rule:evenodd;stroke-linejoin:round;stroke-miterlimit:2;">
    <path d="M98.595,31.344C98.962,23.162 95.968,15.187 90.308,9.267C84.648,3.348 76.815,0 68.625,0C57.168,0 44.275,0 33.06,0C21.859,0 12.044,6.152 6.893,15.317C4.656,19.297 3.299,23.844 3.088,28.702C2.546,41.212 1.91,55.911 1.356,68.702C1.002,76.876 4.001,84.84 9.66,90.749C15.319,96.658 23.146,100 31.328,100C42.765,100 55.635,100 66.832,100C82.878,100 96.083,87.374 96.801,71.344C97.362,58.838 98.021,44.139 98.595,31.344ZM83.069,62.531L16.884,62.531L15.06,70.586L80.941,70.586L83.069,62.531ZM83.069,44.762L16.884,44.762L15.06,52.817L80.941,52.817L83.069,44.762ZM83.069,27.045L16.884,27.045L15.06,35.099L80.941,35.099L83.069,27.045Z" style="fill:rgb(227,178,60);"/>
</svg>
